<svg width="94" height="94" viewBox="0 0 94 94" fill="none" xmlns="http://www.w3.org/2000/svg">
<g clip-path="url(#clip0_1918_4489)">
<path fill-rule="evenodd" clip-rule="evenodd" d="M42.1141 83.1404C43.9 83.4138 45.7289 83.5555 47.5913 83.5555C67.4198 83.5555 83.494 67.4814 83.494 47.6529C83.494 27.8242 67.4198 11.75 47.5913 11.75C46.261 11.75 44.9474 11.8224 43.6547 11.9634C53.4907 19.4152 59.994 32.3239 59.994 47C59.994 62.4292 52.8061 75.905 42.1141 83.1404ZM46.9384 94C72.8958 94 93.9384 72.9574 93.9384 47C93.9384 21.0426 72.8958 0 46.9384 0C20.981 0 -0.0615234 21.0426 -0.0615234 47C-0.0615234 72.9574 20.981 94 46.9384 94Z" fill="url(#paint0_linear_1918_4489)"/>
</g>
<defs>
<linearGradient id="paint0_linear_1918_4489" x1="-9.46989" y1="7.04886" x2="61.066" y2="117.509" gradientUnits="userSpaceOnUse">
<stop stop-color="white"/>
<stop offset="1" stop-color="white" stop-opacity="0"/>
</linearGradient>
<clipPath id="clip0_1918_4489">
<rect width="94" height="94" fill="white"/>
</clipPath>
</defs>
</svg>
