<svg width="94" height="94" viewBox="0 0 94 94" fill="none" xmlns="http://www.w3.org/2000/svg">
<g clip-path="url(#clip0_1918_1916)">
<path fill-rule="evenodd" clip-rule="evenodd" d="M51.5347 46.7946C52.1717 46.4061 52.7122 45.592 53.1481 44.6873C58.8845 47.0318 62.9156 52.5719 62.9156 59.0327C62.9156 67.6157 55.8014 74.5738 47.0256 74.5738C43.4231 74.5738 40.1006 73.4012 37.4354 71.4251C36.5611 71.0111 35.8418 70.6135 35.2532 70.288C34.3402 69.7833 33.7415 69.4522 33.3666 69.504C32.2707 69.6551 32.5889 70.6634 32.878 71.5794C33.0743 72.2016 33.2573 72.7812 32.9741 73.0202C32.6777 73.2706 31.7179 72.3554 30.5963 71.2862C29.0696 69.8304 27.2432 68.0891 26.3819 68.6121C25.701 69.0257 26.3621 70.1477 27.1714 71.521L27.2314 71.6229C27.5733 72.2034 27.9695 72.7946 28.331 73.334C29.0659 74.4302 29.6578 75.3136 29.3617 75.4631C29.0037 75.6438 26.5094 73.9602 24.4074 71.6229C23.5961 70.7209 22.8103 69.7431 22.08 68.8344V68.8343C20.4814 66.8452 19.1496 65.1883 18.402 65.3845C17.5027 65.6206 18.183 67.4757 19.1827 69.2607C19.6501 70.0955 20.2 70.9456 20.676 71.6816V71.6818C21.4165 72.8263 21.9784 73.6949 21.7747 73.8018C21.4996 73.9455 19.0797 71.5858 17.436 68.6121C16.4598 66.8458 15.64 64.8938 14.9764 63.3136C14.2567 61.5997 13.7206 60.3232 13.3675 60.1947C12.141 59.7484 12.141 62.2491 12.6329 65.8584C12.6971 66.3293 12.7927 66.8232 12.9103 67.326C17.6809 82.7613 32.3355 94 49.6739 94C70.8821 94 88.0746 77.185 88.0746 56.4426C88.0746 36.7004 72.5005 20.5161 52.713 19.0009C52.7379 18.0708 53.2233 16.2266 53.2233 16.2266C53.2233 16.2266 56.7166 7.77468 56.9013 5.96861C56.9134 5.84875 56.9279 5.71849 56.9435 5.57976C57.1611 3.62835 57.5659 0 54.4444 0C52.7774 0 52.0023 1.24011 51.1157 2.65842V2.65844C50.7753 3.20292 50.4184 3.77368 49.9884 4.3106C46.8916 8.17793 41.6841 13.0074 38.7314 15.5803C32.4903 21.0185 26.3671 25.488 22.7958 28.0946L22.7956 28.0948C21.1714 29.2803 20.0751 30.0806 19.7358 30.4112C17.1791 32.9037 8.01188 49.4392 8.01188 49.4392C8.01188 49.4392 5.04729 54.7444 6.10103 55.8204C7.15477 56.8963 9.69585 56.6497 9.69585 56.6497C9.69585 56.6497 43.8334 48.8181 46.8897 48.2005C47.7126 48.0342 48.2935 47.9382 48.7394 47.8645C49.9502 47.6646 50.1676 47.6286 51.5347 46.7946ZM27.3981 36.7305C25.5657 38.4723 22.5267 42.6297 22.5267 42.6297C22.5267 42.6297 28.1747 42.9776 31.2854 40.0209C34.3962 37.0639 33.6835 32.0248 33.6835 32.0248C33.6835 32.0248 29.2304 34.9887 27.3981 36.7305Z" fill="url(#paint0_linear_1918_1916)"/>
</g>
<defs>
<linearGradient id="paint0_linear_1918_1916" x1="-2.35282" y1="7.04886" x2="71.7076" y2="108.47" gradientUnits="userSpaceOnUse">
<stop stop-color="white"/>
<stop offset="1" stop-color="white" stop-opacity="0"/>
</linearGradient>
<clipPath id="clip0_1918_1916">
<rect width="94" height="94" fill="white"/>
</clipPath>
</defs>
</svg>
