<svg width="94" height="94" viewBox="0 0 94 94" fill="none" xmlns="http://www.w3.org/2000/svg">
<g clip-path="url(#clip0_1918_8114)">
<path fill-rule="evenodd" clip-rule="evenodd" d="M64.6714 72.5929C65.8328 68.3461 63.5785 59.6157 63.5785 59.6157C63.5785 59.6157 61.9434 66.7279 59.3885 69.3566C57.2089 71.5989 54.5385 73.1541 50.7087 73.5628C53.8399 72.0419 55.9933 68.8707 55.9933 65.2052C55.9933 60.0598 51.7501 55.8886 46.5158 55.8886C41.2816 55.8886 37.0382 60.0598 37.0382 65.2052C37.0382 66.6104 37.3549 67.9432 37.9216 69.138C34.6478 66.5298 34.133 62.3483 34.133 62.3483C34.133 62.3483 30.4773 77.526 40.5503 84.6656C50.6232 91.8052 70.3557 85.6684 70.3557 85.6684C70.3557 85.6684 42.1173 105.537 21.1924 83.9125C3.16729 65.284 16.4878 40.7593 16.4878 40.7593C16.4878 40.7593 15.9125 43.0344 15.9125 45.6754C15.9125 48.3164 17.3444 50.3259 17.3444 50.3259C17.3444 50.3259 21.6157 41.3226 24.9399 37.6612C28.086 34.1961 32.0297 31.3856 35.4361 28.9581C38.0582 27.0895 40.362 25.4478 41.7378 23.9091C49.316 15.4355 44.6694 0.000976562 44.6694 0.000976562C44.6694 0.000976562 53.212 7.53199 55.5969 17.2584C56.5061 20.9659 55.9212 25.1844 55.3983 28.9567C54.5493 35.0806 53.8633 40.029 59.9962 39.7079C69.907 39.1889 61.2948 23.9091 61.2948 23.9091C61.2948 23.9091 83.7762 35.7252 82.0967 56.3909C80.417 77.0566 57.5234 81.7547 57.5234 81.7547C57.5234 81.7547 63.5098 76.8396 64.6714 72.5929Z" fill="url(#paint0_linear_1918_8114)"/>
</g>
<defs>
<linearGradient id="paint0_linear_1918_8114" x1="4.69902" y1="7.04983" x2="81.4657" y2="97.1332" gradientUnits="userSpaceOnUse">
<stop stop-color="white"/>
<stop offset="1" stop-color="white" stop-opacity="0"/>
</linearGradient>
<clipPath id="clip0_1918_8114">
<rect width="94" height="94" fill="white"/>
</clipPath>
</defs>
</svg>
