<svg width="19" height="18" viewBox="0 0 19 18" fill="none" xmlns="http://www.w3.org/2000/svg">
<g clip-path="url(#clip0_1257_35389)">
<path fill-rule="evenodd" clip-rule="evenodd" d="M10.1625 8.96071C10.2845 8.88632 10.388 8.73043 10.4715 8.55718C11.57 9.00613 12.3419 10.067 12.3419 11.3042C12.3419 12.9478 10.9796 14.2802 9.2991 14.2802C8.60926 14.2802 7.97304 14.0556 7.46267 13.6772C7.29526 13.5979 7.15751 13.5218 7.0448 13.4595C6.86997 13.3628 6.75532 13.2994 6.68353 13.3094C6.47369 13.3383 6.53461 13.5314 6.58998 13.7068C6.62756 13.8259 6.66262 13.9369 6.60837 13.9827C6.55163 14.0306 6.36783 13.8554 6.15306 13.6506C5.8607 13.3719 5.51096 13.0384 5.34604 13.1386C5.21565 13.2178 5.34225 13.4326 5.49722 13.6956L5.50871 13.7151C5.57417 13.8263 5.65004 13.9395 5.71926 14.0427C5.85999 14.2527 5.97334 14.4218 5.91663 14.4505C5.84808 14.4851 5.37044 14.1627 4.96794 13.7151C4.81258 13.5424 4.66211 13.3551 4.52226 13.1811V13.1811C4.21615 12.8002 3.96112 12.4829 3.81797 12.5205C3.64575 12.5657 3.77603 12.9209 3.96745 13.2628C4.05696 13.4226 4.16225 13.5854 4.25342 13.7263V13.7264C4.3952 13.9455 4.50282 14.1119 4.46379 14.1323C4.41113 14.1599 3.94773 13.708 3.63299 13.1386C3.44604 12.8003 3.28907 12.4265 3.16199 12.1239C3.02417 11.7958 2.92151 11.5513 2.85391 11.5267C2.61905 11.4412 2.61904 11.9201 2.71324 12.6112C2.72553 12.7014 2.74383 12.796 2.76636 12.8923C3.67987 15.848 6.4861 18.0001 9.80623 18.0001C13.8674 18.0001 17.1596 14.7802 17.1596 10.8082C17.1596 7.02777 14.1773 3.92863 10.3882 3.63848C10.393 3.46039 10.4859 3.10723 10.4859 3.10723C10.4859 3.10723 11.1548 1.48878 11.1902 1.14293C11.1925 1.11998 11.1953 1.09504 11.1983 1.06847C11.2399 0.694793 11.3175 0 10.7197 0C10.4005 0 10.2521 0.237469 10.0823 0.509062V0.509065C10.0171 0.613329 9.94879 0.722623 9.86646 0.825438C9.27344 1.56599 8.27626 2.49079 7.71084 2.98348C6.51573 4.02485 5.34319 4.8807 4.65933 5.37985L4.6593 5.37988C4.34827 5.60689 4.13835 5.76014 4.07338 5.82345C3.58379 6.30074 1.82835 9.46714 1.82835 9.46714C1.82835 9.46714 1.26066 10.483 1.46244 10.6891C1.66422 10.8951 2.15082 10.8479 2.15082 10.8479C2.15082 10.8479 8.68784 9.3482 9.27309 9.22994C9.43066 9.19808 9.54189 9.1797 9.62729 9.1656C9.85915 9.12732 9.90077 9.12042 10.1625 8.96071ZM5.54063 7.03354C5.18974 7.36707 4.60779 8.16319 4.60779 8.16319C4.60779 8.16319 5.68935 8.22981 6.285 7.66361C6.88069 7.09738 6.74421 6.13244 6.74421 6.13244C6.74421 6.13244 5.89149 6.70001 5.54063 7.03354Z" fill="white"/>
</g>
<defs>
<clipPath id="clip0_1257_35389">
<rect width="18.0001" height="18.0001" fill="white" transform="translate(0.294189)"/>
</clipPath>
</defs>
</svg>
