<svg width="94" height="94" viewBox="0 0 94 94" fill="none" xmlns="http://www.w3.org/2000/svg">
<g clip-path="url(#clip0_1918_7766)">
<path fill-rule="evenodd" clip-rule="evenodd" d="M18.8599 74.535L33.9369 70.1633L46.9593 93.9738C46.9763 94.0046 47.0206 94.0046 47.0375 93.9738L60.0598 70.1633L75.137 74.535C75.1708 74.5448 75.2022 74.5134 75.1921 74.4796L70.8197 59.7008L93.9736 47.0375C94.0046 47.0206 94.0046 46.9763 93.9738 46.9594L70.6289 34.1916L75.1921 18.7679C75.2022 18.7341 75.1708 18.7027 75.137 18.7124L59.7062 23.1868L47.0375 0.0231673C47.0206 -0.00772189 46.9763 -0.00772275 46.9594 0.0231666L34.2907 23.1868L18.8599 18.7124C18.8261 18.7027 18.7947 18.7341 18.8048 18.7679L23.368 34.1916L0.0231673 46.9594C-0.00772189 46.9763 -0.00772275 47.0206 0.0231666 47.0375L23.1771 59.7008L18.8048 74.4796C18.7947 74.5134 18.8261 74.5448 18.8599 74.535ZM30.5596 47.1608L41.2409 53.0026L47.0826 63.6837C47.0995 63.7148 47.144 63.7148 47.1608 63.6837L53.0026 53.0026L63.6837 47.1608C63.7146 47.144 63.7146 47.0995 63.6837 47.0826L53.0026 41.2409L47.1608 30.5597C47.144 30.5287 47.0995 30.5287 47.0826 30.5597L41.2409 41.2409L30.5596 47.0826C30.5287 47.0995 30.5287 47.144 30.5596 47.1608Z" fill="url(#paint0_linear_1918_7766)"/>
</g>
<defs>
<linearGradient id="paint0_linear_1918_7766" x1="-9.40806" y1="7.04862" x2="61.1255" y2="117.505" gradientUnits="userSpaceOnUse">
<stop stop-color="white"/>
<stop offset="1" stop-color="white" stop-opacity="0"/>
</linearGradient>
<clipPath id="clip0_1918_7766">
<rect width="94" height="94" fill="white"/>
</clipPath>
</defs>
</svg>
