<svg width="19" height="18" viewBox="0 0 19 18" fill="none" xmlns="http://www.w3.org/2000/svg">
<g clip-path="url(#clip0_1257_35391)">
<path fill-rule="evenodd" clip-rule="evenodd" d="M5.95166 0.0205194C5.94818 0.0104752 5.95567 0 5.96629 0H12.2884C12.2952 0 12.3012 0.00441519 12.3032 0.0108908L15.2071 9.39278C15.2101 9.40273 15.2027 9.41282 15.1923 9.41282H10.9834C10.9783 9.41282 10.9746 9.41771 10.976 9.42266L13.3899 17.9202C13.3946 17.9366 13.373 17.9474 13.3627 17.9337L3.98183 5.45863C3.97417 5.44844 3.98144 5.43389 3.99419 5.43389H7.81411C7.81942 5.43389 7.82315 5.42865 7.82139 5.42362L5.95166 0.0205194Z" fill="white"/>
</g>
<defs>
<clipPath id="clip0_1257_35391">
<rect width="18.0001" height="18.0001" fill="white" transform="translate(0.588257)"/>
</clipPath>
</defs>
</svg>
