<svg width="94" height="94" viewBox="0 0 94 94" fill="none" xmlns="http://www.w3.org/2000/svg">
<path fill-rule="evenodd" clip-rule="evenodd" d="M0.00938361 46.7315C-0.00312194 46.7102 -0.00312822 46.6838 0.00936688 46.6623L23.646 6.27798C23.6583 6.25703 23.6808 6.24414 23.7051 6.24414H70.554C70.5784 6.24414 70.601 6.25714 70.6133 6.27827L93.9907 46.6627C94.003 46.6838 94.003 46.71 93.9907 46.7312L70.6133 87.0702C70.601 87.0913 70.5784 87.1043 70.554 87.1043H23.7051C23.6808 87.1043 23.6583 87.0915 23.646 87.0706L0.00938361 46.7315ZM68.7774 46.6742C68.7774 58.6974 59.0305 68.4442 47.0074 68.4442C34.9842 68.4442 25.2374 58.6974 25.2374 46.6742C25.2374 34.6509 34.9842 24.9042 47.0074 24.9042C59.0305 24.9042 68.7774 34.6509 68.7774 46.6742Z" fill="url(#paint0_linear_1918_4862)"/>
<defs>
<linearGradient id="paint0_linear_1918_4862" x1="-9.40836" y1="12.3077" x2="47.0375" y2="115.067" gradientUnits="userSpaceOnUse">
<stop stop-color="white"/>
<stop offset="1" stop-color="white" stop-opacity="0"/>
</linearGradient>
</defs>
</svg>
