<svg width="16" height="28" viewBox="0 0 16 28" fill="none" xmlns="http://www.w3.org/2000/svg">
<path d="M8.76797 27.4541C8.3682 27.9335 7.6318 27.9335 7.23202 27.4541L0.368115 19.2238C-0.175019 18.5726 0.288079 17.5833 1.13609 17.5833L2.99059 17.5833C3.54264 17.5833 3.99026 17.136 3.99059 16.5839L3.99941 1.62441C3.99974 1.07236 4.44736 0.625003 4.99941 0.625003L11 0.625003C11.5523 0.625003 12 1.07272 12 1.625L12 16.5833C12 17.1356 12.4477 17.5833 13 17.5833L14.8639 17.5833C15.7119 17.5833 16.175 18.5726 15.6319 19.2238L8.76797 27.4541Z" fill="#173EA5"/>
</svg>
