<svg width="94" height="94" viewBox="0 0 94 94" fill="none" xmlns="http://www.w3.org/2000/svg">
<path fill-rule="evenodd" clip-rule="evenodd" d="M77.5081 63.619C77.5081 80.3961 63.8563 93.9968 47.0158 93.9968C30.1753 93.9968 16.5234 80.3961 16.5234 63.619C16.5234 47.3019 45.3664 2.48829 46.9482 0.042801C46.9844 -0.0129653 47.0474 -0.0129648 47.0834 0.0428016C48.6652 2.48829 77.5081 47.3019 77.5081 63.619ZM41.9328 84.2578C26.4595 80.8722 29.1073 63.7319 29.1073 63.7319C29.1073 63.7319 33.3325 74.0789 43.5861 77.4305C53.8394 80.782 66.2305 75.8665 66.2305 75.8665C66.2305 75.8665 57.4061 87.6433 41.9328 84.2578Z" fill="url(#paint0_linear_1918_3426)"/>
<defs>
<linearGradient id="paint0_linear_1918_3426" x1="10.4195" y1="7.04952" x2="88.1572" y2="86.0338" gradientUnits="userSpaceOnUse">
<stop stop-color="white"/>
<stop offset="1" stop-color="white" stop-opacity="0"/>
</linearGradient>
</defs>
</svg>
