<svg width="19" height="18" viewBox="0 0 19 18" fill="none" xmlns="http://www.w3.org/2000/svg">
<g clip-path="url(#clip0_1257_35399)">
<path fill-rule="evenodd" clip-rule="evenodd" d="M14.7142 8.60526C14.7131 8.60386 14.7127 8.6021 14.713 8.60038L15.8613 1.90426C15.8619 1.90118 15.8646 1.89893 15.8677 1.89893H16.2311C16.2339 1.89893 16.2364 1.90074 16.2372 1.90342L18.8244 10.095C18.8252 10.0975 18.8243 10.1003 18.8222 10.102L16.9147 11.5913C16.9118 11.5935 16.9077 11.593 16.9056 11.59L14.7142 8.60526ZM0.787354 13.0443C0.787354 13.0471 0.789139 13.0495 0.791779 13.0504L4.724 14.3361C4.72589 14.3367 4.728 14.3364 4.72966 14.3353L13.5191 8.2673C13.5206 8.26628 13.5215 8.2647 13.5218 8.26294L14.4643 1.9386C14.4649 1.93471 14.4619 1.93123 14.458 1.93123H6.67275C6.67082 1.93123 6.66903 1.93208 6.6678 1.93355L0.788831 9.02563C0.787876 9.02679 0.787354 9.02823 0.787354 9.02974V13.0443ZM6.36257 14.6637L10.6584 16.0709C10.6604 16.0715 10.6625 16.0712 10.6642 16.07L15.7787 12.4014C15.7815 12.3993 15.7822 12.3954 15.7803 12.3926L13.863 9.53944C13.861 9.53645 13.857 9.53568 13.8541 9.53772L6.36257 14.6637Z" fill="white"/>
</g>
<defs>
<clipPath id="clip0_1257_35399">
<rect width="18.0001" height="18.0001" fill="white" transform="translate(0.822754)"/>
</clipPath>
</defs>
</svg>
