<svg width="94" height="94" viewBox="0 0 94 94" fill="none" xmlns="http://www.w3.org/2000/svg">
<g clip-path="url(#clip0_1918_2866)">
<path fill-rule="evenodd" clip-rule="evenodd" d="M93.9995 46.9939C93.9995 72.9511 72.957 93.9936 46.9997 93.9936C21.0425 93.9936 0 72.9511 0 46.9939C0 21.0367 21.0425 -0.00585938 46.9997 -0.00585938C72.957 -0.00585938 93.9995 21.0367 93.9995 46.9939ZM73.8567 46.9939C73.8567 61.8266 61.8325 73.8508 46.9997 73.8508C32.167 73.8508 20.1428 61.8266 20.1428 46.9939C20.1428 32.1612 32.167 20.137 46.9997 20.137C61.8325 20.137 73.8567 32.1612 73.8567 46.9939Z" fill="url(#paint0_linear_1918_2866)"/>
</g>
<defs>
<linearGradient id="paint0_linear_1918_2866" x1="-9.40832" y1="7.04296" x2="61.1271" y2="117.503" gradientUnits="userSpaceOnUse">
<stop stop-color="white"/>
<stop offset="1" stop-color="white" stop-opacity="0"/>
</linearGradient>
<clipPath id="clip0_1918_2866">
<rect width="94" height="94" fill="white"/>
</clipPath>
</defs>
</svg>
