<svg width="19" height="18" viewBox="0 0 19 18" fill="none" xmlns="http://www.w3.org/2000/svg">
<g clip-path="url(#clip0_1257_35405)">
<path fill-rule="evenodd" clip-rule="evenodd" d="M14.0623 1.0194L14.1177 5.8833L9.87539 7.9198L9.82308 3.32735L14.0623 1.0194Z" fill="white"/>
<path fill-rule="evenodd" clip-rule="evenodd" d="M18.3151 8.68398L14.1155 11.0861L9.91342 8.68018L14.1134 6.47405L18.3151 8.68398Z" fill="white"/>
<path fill-rule="evenodd" clip-rule="evenodd" d="M9.16663 8.68398L4.96702 11.0861L0.764893 8.68018L4.96484 6.47405L9.16663 8.68398Z" fill="white"/>
<path fill-rule="evenodd" clip-rule="evenodd" d="M4.91934 0.999756L9.27825 3.15856L9.1668 7.86306L5.05118 5.82476L4.91934 0.999756Z" fill="white"/>
<path fill-rule="evenodd" clip-rule="evenodd" d="M14.1815 16.2943L9.82259 14.1354L9.93403 9.43092L14.0497 11.4693L14.1815 16.2943Z" fill="white"/>
<path fill-rule="evenodd" clip-rule="evenodd" d="M5.0705 16.3382L5.01509 11.4743L9.25745 9.43779L9.30977 14.0302L5.0705 16.3382Z" fill="white"/>
</g>
<defs>
<clipPath id="clip0_1257_35405">
<rect width="18" height="18" fill="white" transform="translate(0.764893)"/>
</clipPath>
</defs>
</svg>
