<svg width="94" height="94" viewBox="0 0 94 94" fill="none" xmlns="http://www.w3.org/2000/svg">
<path fill-rule="evenodd" clip-rule="evenodd" d="M32.8104 87.7078C46.5805 87.7078 58.3694 80.0547 63.2363 69.2058C63.2958 69.0734 43.6966 74.2992 44.3215 72.4519C44.6006 71.627 56.615 67.238 65.3682 62.1187C70.3992 59.1763 72.716 52.9475 72.716 52.9475C72.716 52.9475 64.24 57.0627 59.9551 58.1066C51.3203 60.2106 43.7194 59.9841 43.7194 59.7649C43.7194 59.2908 56.3405 56.8927 73.8825 46.203C82.1338 41.1749 84.3749 32.514 84.3749 32.514C84.3749 32.514 75.3034 37.9176 69.8194 39.7015C56.8144 43.9321 44.9465 45.207 44.9465 44.6345C44.9465 43.4089 55.3906 40.5369 66.4639 35.1714C72.2214 32.3817 77.2076 28.737 82.9858 24.6838C92.4406 18.0522 93.9998 6.24121 93.9998 6.24121C93.9998 6.24121 84.6747 12.2558 80.124 14.2531C61.3462 22.495 44.7655 26.8182 32.8104 27.7542C14.7639 29.1671 0 41.7585 0 58.1066C0 74.4549 14.6897 87.7078 32.8104 87.7078Z" fill="url(#paint0_linear_1918_8597)"/>
<defs>
<linearGradient id="paint0_linear_1918_8597" x1="6" y1="11.9996" x2="88" y2="86.4996" gradientUnits="userSpaceOnUse">
<stop stop-color="white"/>
<stop offset="1" stop-color="white" stop-opacity="0"/>
</linearGradient>
</defs>
</svg>
