<svg width="94" height="94" viewBox="0 0 94 94" fill="none" xmlns="http://www.w3.org/2000/svg">
<g clip-path="url(#clip0_1918_9689)">
<path fill-rule="evenodd" clip-rule="evenodd" d="M78.5453 72.2348C88.0376 64.6448 94 53.6784 94 41.483C94 18.5725 72.9574 0 47 0C21.0426 0 0 18.5725 0 41.483C0 53.2382 5.5397 63.8513 14.4406 71.3998C13.9012 73.2624 13.6053 75.2883 13.6053 77.4068C13.6053 86.5709 19.1428 94 25.9737 94C30.4123 94 34.3049 90.8633 36.4869 86.1521C38.6689 90.8633 42.5614 94 47 94C51.046 94 54.6382 91.3937 56.8948 87.3644C59.1513 91.3937 62.7435 94 66.7894 94C73.6204 94 79.1579 86.5709 79.1579 77.4068C79.1579 75.601 78.9428 73.8623 78.5453 72.2348ZM74.2106 42.3057C74.2106 53.9371 61.751 63.3663 46.3817 63.3663C31.0121 63.3663 18.5527 53.9371 18.5527 42.3057C18.5527 30.6743 31.0121 21.2451 46.3817 21.2451C61.751 21.2451 74.2106 30.6743 74.2106 42.3057Z" fill="url(#paint0_linear_1918_9689)"/>
</g>
<defs>
<linearGradient id="paint0_linear_1918_9689" x1="-9.40837" y1="7.04886" x2="61.1275" y2="117.509" gradientUnits="userSpaceOnUse">
<stop stop-color="white"/>
<stop offset="1" stop-color="white" stop-opacity="0"/>
</linearGradient>
<clipPath id="clip0_1918_9689">
<rect width="94" height="94" fill="white"/>
</clipPath>
</defs>
</svg>
