<svg width="94" height="94" viewBox="0 0 94 94" fill="none" xmlns="http://www.w3.org/2000/svg">
<path fill-rule="evenodd" clip-rule="evenodd" d="M20.7028 80.7361C20.6773 80.7361 20.6594 80.7109 20.6679 80.6869L44.6664 12.8762C44.6717 12.8614 44.6856 12.8516 44.7012 12.8516H70.3203C70.3359 12.8516 70.35 12.8615 70.3552 12.8763L93.9976 80.6871C94.0059 80.7111 93.9881 80.7361 93.9628 80.7361H21.4239H20.7028ZM0.0369585 81.0014C0.0111831 81.0014 -0.00666173 80.9757 0.00237951 80.9516L17.8733 33.2408C17.8787 33.2263 17.8925 33.2167 17.9079 33.2167H33.4357C33.4614 33.2167 33.4792 33.2422 33.4704 33.2663L16.1897 80.9772C16.1844 80.9917 16.1706 81.0014 16.155 81.0014H0.0369585Z" fill="url(#paint0_linear_1918_11160)"/>
<defs>
<linearGradient id="paint0_linear_1918_11160" x1="-9.40834" y1="17.962" x2="33.5728" y2="110.802" gradientUnits="userSpaceOnUse">
<stop stop-color="white"/>
<stop offset="1" stop-color="white" stop-opacity="0"/>
</linearGradient>
</defs>
</svg>
