<svg width="18" height="18" viewBox="0 0 18 18" fill="none" xmlns="http://www.w3.org/2000/svg">
<path d="M7.125 8.25C8.5725 8.25 9.75 9.4275 9.75 10.875C9.75 12.3225 8.5725 13.5 7.125 13.5C5.6775 13.5 4.5 12.3225 4.5 10.875C4.5 9.4275 5.6775 8.25 7.125 8.25ZM7.125 6.75C4.845 6.75 3 8.595 3 10.875C3 13.155 4.845 15 7.125 15C9.405 15 11.25 13.155 11.25 10.875C11.25 10.005 10.98 9.2025 10.5225 8.535L13.5 5.565V7.5H15V3L10.5 3V4.5L12.435 4.5L9.4575 7.4775C8.7975 7.02 7.995 6.75 7.125 6.75Z" fill="black" fill-opacity="0.7"/>
</svg>
