<svg width="94" height="94" viewBox="0 0 94 94" fill="none" xmlns="http://www.w3.org/2000/svg">
<g clip-path="url(#clip0_1918_1683)">
<path fill-rule="evenodd" clip-rule="evenodd" d="M67.7373 93.6745C59.2584 94.1085 49.5512 94.1085 46.2524 93.6745C20.5203 90.2892 0 71.4754 0 46.0453C0 20.6152 21.0426 0 47 0C72.9574 0 94 20.6152 94 46.0453C94 57.8726 89.4482 68.6584 81.9673 76.8132C79.9358 79.0276 82.7231 80.5808 85.5551 82.1589C88.3325 83.7068 91.1528 85.2786 89.5137 87.5214C87.7075 89.9927 77.9157 93.1535 67.7373 93.6745ZM40.3906 40.2897C40.3906 44.263 37.1026 47.4841 33.0469 47.4841C28.9911 47.4841 25.7031 44.263 25.7031 40.2897C25.7031 37.6248 27.182 35.2985 29.3794 34.055C29.5059 37.5196 32.3545 40.2895 35.8502 40.2895H40.3906V40.2897ZM63.1519 34.055C63.0254 37.5196 60.1767 40.2895 56.6811 40.2895H52.1406V40.2897C52.1406 44.263 55.4286 47.4841 59.4844 47.4841C63.5401 47.4841 66.8281 44.263 66.8281 40.2897C66.8281 37.6248 65.3493 35.2985 63.1519 34.055Z" fill="url(#paint0_linear_1918_1683)"/>
</g>
<defs>
<linearGradient id="paint0_linear_1918_1683" x1="-9.40837" y1="7.04886" x2="61.1275" y2="117.509" gradientUnits="userSpaceOnUse">
<stop stop-color="white"/>
<stop offset="1" stop-color="white" stop-opacity="0"/>
</linearGradient>
<clipPath id="clip0_1918_1683">
<rect width="94" height="94" fill="white"/>
</clipPath>
</defs>
</svg>
