<svg width="19" height="18" viewBox="0 0 19 18" fill="none" xmlns="http://www.w3.org/2000/svg">
<path fill-rule="evenodd" clip-rule="evenodd" d="M12.3836 0.0177453C12.3967 -0.000947982 12.4225 -0.00549094 12.4412 0.00759823L13.7192 0.902525C13.7379 0.915613 13.7425 0.941376 13.7294 0.960069L11.9505 3.50055C12.8153 3.77684 13.4045 4.07486 13.4045 4.07486C13.4045 4.07486 11.9644 6.55205 9.52173 6.55205C7.0791 6.55205 5.34339 4.24326 5.34339 4.24326C5.34339 4.24326 5.95884 3.85049 6.87115 3.51363L4.91996 1.18833C4.9053 1.17084 4.90759 1.14478 4.92506 1.13011L6.12028 0.1272C6.13778 0.112532 6.16383 0.114812 6.17849 0.132293L8.64901 3.07654C8.86054 3.05261 9.07605 3.03923 9.29353 3.03923C9.60611 3.03923 9.9183 3.063 10.2231 3.10332L12.3836 0.0177453ZM12.8669 6.66937C13.5187 6.20383 14.5051 4.98875 14.5051 4.98875C14.5051 4.98875 17.0245 6.98528 17.0245 11.2187C17.0245 15.452 12.6688 17.9999 12.6688 17.9999C12.6688 17.9999 10.5877 15.8983 10.0768 13.2341C9.56592 10.5699 10.8325 7.6116 10.8325 7.6116C10.8325 7.6116 12.215 7.13491 12.8669 6.66937ZM5.84672 6.66937C5.19489 6.20383 4.20854 4.98875 4.20854 4.98875C4.20854 4.98875 1.68909 6.98528 1.68909 11.2187C1.68909 15.452 6.04483 17.9999 6.04483 17.9999C6.04483 17.9999 8.12592 15.8983 8.63681 13.2341C9.14767 10.5699 7.88109 7.6116 7.88109 7.6116C7.88109 7.6116 6.49859 7.13491 5.84672 6.66937Z" fill="white"/>
</svg>
