<svg width="16" height="16" viewBox="0 0 16 16" fill="none" xmlns="http://www.w3.org/2000/svg">
<path d="M8 2.5C7.1775 2.5 6.5 3.1775 6.5 4C6.5 4.176 6.537 4.342 6.594 4.5H4.094L4.0155 4.9065L2.5155 12.4065L2.5 12.453V13.5H13.5V12.453L13.4845 12.4065L11.9845 4.9065L11.906 4.5H9.406C9.46606 4.34004 9.49786 4.17085 9.5 4C9.5 3.1775 8.8225 2.5 8 2.5ZM8 3.5C8.2815 3.5 8.5 3.719 8.5 4C8.5 4.2815 8.281 4.5 8 4.5C7.7185 4.5 7.5 4.281 7.5 4C7.5 3.7185 7.719 3.5 8 3.5ZM4.906 5.5H11.094L12.5 12.5H3.5L4.906 5.5Z" fill="black" fill-opacity="0.6"/>
</svg>
