<svg width="28" height="28" viewBox="0 0 28 28" fill="none" xmlns="http://www.w3.org/2000/svg">
<path d="M21.4246 6.57538C25.5251 10.6759 25.5251 17.3241 21.4246 21.4246C17.3241 25.5251 10.6759 25.5251 6.57538 21.4246C2.47487 17.3241 2.47487 10.6759 6.57538 6.57538C10.6759 2.47487 17.3241 2.47487 21.4246 6.57538" stroke="#808080" stroke-width="1.5" stroke-linecap="round" stroke-linejoin="round"/>
<path d="M16.3212 9.71122C17.6028 10.9929 17.6028 13.0708 16.3212 14.3524C15.0396 15.6341 12.9616 15.6341 11.68 14.3524C10.3983 13.0708 10.3983 10.9929 11.68 9.71122C12.9616 8.42959 15.0396 8.42959 16.3212 9.71122" stroke="#808080" stroke-width="1.5" stroke-linecap="round" stroke-linejoin="round"/>
<path d="M20.6581 22.1177C18.984 20.3548 16.6226 19.25 14 19.25C11.3773 19.25 9.01596 20.3548 7.3418 22.1188" stroke="#808080" stroke-width="1.5" stroke-linecap="round" stroke-linejoin="round"/>
</svg>
