<svg width="18" height="18" viewBox="0 0 18 18" fill="none" xmlns="http://www.w3.org/2000/svg">
<g clip-path="url(#clip0_1257_35411)">
<path fill-rule="evenodd" clip-rule="evenodd" d="M6.28141 16.7953C8.91825 16.7953 11.1757 15.3298 12.1077 13.2523C12.1191 13.227 8.36601 14.2276 8.48569 13.8739C8.53912 13.7159 10.8398 12.8755 12.5159 11.8952C13.4793 11.3317 13.9229 10.139 13.9229 10.139C13.9229 10.139 12.2999 10.927 11.4794 11.1269C9.82588 11.5298 8.37037 11.4864 8.37037 11.4445C8.37037 11.3537 10.7872 10.8945 14.1463 8.84748C15.7264 7.88465 16.1555 6.22618 16.1555 6.22618C16.1555 6.22618 14.4184 7.26091 13.3683 7.60252C10.8779 8.41263 8.60536 8.65676 8.60536 8.54714C8.60536 8.31244 10.6053 7.76248 12.7257 6.73504C13.8282 6.20083 14.783 5.50291 15.8895 4.72676C17.7 3.45687 17.9986 1.19519 17.9986 1.19519C17.9986 1.19519 16.2129 2.34692 15.3415 2.7294C11.7457 4.30763 8.57069 5.13549 6.28141 5.31472C2.82568 5.58528 -0.00146484 7.99642 -0.00146484 11.1269C-0.00146484 14.2575 2.81147 16.7953 6.28141 16.7953Z" fill="white"/>
</g>
<defs>
<clipPath id="clip0_1257_35411">
<rect width="18.0001" height="18.0001" fill="white" transform="translate(-0.00146484)"/>
</clipPath>
</defs>
</svg>
