<svg width="18" height="18" viewBox="0 0 18 18" fill="none" xmlns="http://www.w3.org/2000/svg">
<path fill-rule="evenodd" clip-rule="evenodd" d="M14.842 12.1824C14.842 15.395 12.2278 17.9994 9.00306 17.9994C5.77826 17.9994 3.16406 15.395 3.16406 12.1824C3.16406 9.05779 8.68721 0.476418 8.99012 0.00813106C8.99704 -0.00254766 9.0091 -0.00254756 9.01599 0.00813116C9.3189 0.476418 14.842 9.05779 14.842 12.1824ZM8.02971 16.1345C5.06673 15.4862 5.57376 12.204 5.57376 12.204C5.57376 12.204 6.38285 14.1853 8.3463 14.8271C10.3097 15.4689 12.6825 14.5276 12.6825 14.5276C12.6825 14.5276 10.9927 16.7828 8.02971 16.1345Z" fill="white"/>
</svg>
