<svg width="94" height="94" viewBox="0 0 94 94" fill="none" xmlns="http://www.w3.org/2000/svg">
<path fill-rule="evenodd" clip-rule="evenodd" d="M17.8863 80.9028C17.5637 80.5993 17.2446 80.29 16.9292 79.9746C0.280102 63.3255 0.280105 36.3319 16.9292 19.6829C33.5783 3.03373 86.6288 1.91992 86.6288 1.91992C86.6288 1.91992 93.8701 63.3255 77.2211 79.9746C62.4344 94.7612 39.4885 96.4154 22.8764 84.9373L36.2618 68.511L57.6597 63.8912L40.1928 62.145L51.2932 50.8426L63.9289 48.0746L53.9373 45.1156L63.9289 27.0911L49.7169 43.0322L44.2287 35.2876L46.1607 48.0746L36.2618 59.2338L31.6733 45.1154V63.8912L17.8863 80.9028Z" fill="url(#paint0_linear_1918_8337)"/>
<defs>
<linearGradient id="paint0_linear_1918_8337" x1="-3.94043" y1="8.70944" x2="66.0856" y2="110.15" gradientUnits="userSpaceOnUse">
<stop stop-color="white"/>
<stop offset="1" stop-color="white" stop-opacity="0"/>
</linearGradient>
</defs>
</svg>
