<svg width="26" height="26" viewBox="0 0 26 26" fill="none" xmlns="http://www.w3.org/2000/svg">
<path d="M2.16683 13.0007C2.16683 14.4233 2.44704 15.832 2.99147 17.1464C3.53589 18.4607 4.33387 19.655 5.33984 20.661C6.34581 21.6669 7.54006 22.4649 8.85443 23.0093C10.1688 23.5538 11.5775 23.834 13.0002 23.834C14.4228 23.834 15.8315 23.5538 17.1459 23.0093C18.4603 22.4649 19.6545 21.6669 20.6605 20.661C21.6665 19.655 22.4644 18.4607 23.0089 17.1464C23.5533 15.832 23.8335 14.4233 23.8335 13.0006L13.0002 13.0007H2.16683Z" fill="white"/>
<path d="M23.8332 12.9993C23.8332 11.5767 23.553 10.168 23.0085 8.85361C22.4641 7.53925 21.6661 6.34499 20.6602 5.33903C19.6542 4.33306 18.4599 3.53508 17.1456 2.99065C15.8312 2.44623 14.4225 2.16602 12.9998 2.16602C11.5772 2.16602 10.1685 2.44623 8.8541 2.99065C7.53974 3.53508 6.34548 4.33306 5.33951 5.33903C4.33355 6.34499 3.53557 7.53925 2.99114 8.85361C2.44672 10.168 2.1665 11.5767 2.1665 12.9994L12.9998 12.9993H23.8332Z" fill="#CD3131"/>
<circle cx="13.0005" cy="13" r="3.25" fill="white"/>
<path d="M12.9998 23.8327C18.9831 23.8327 23.8332 18.9826 23.8332 12.9993C23.8332 7.0161 18.9831 2.16602 12.9998 2.16602C7.01659 2.16602 2.1665 7.0161 2.1665 12.9993C2.1665 18.9826 7.01659 23.8327 12.9998 23.8327Z" stroke="#173EA5" stroke-width="1.5" stroke-linecap="round" stroke-linejoin="round"/>
<path d="M13 16.25C13.862 16.25 14.6886 15.9076 15.2981 15.2981C15.9076 14.6886 16.25 13.862 16.25 13C16.25 12.138 15.9076 11.3114 15.2981 10.7019C14.6886 10.0924 13.862 9.75 13 9.75C12.138 9.75 11.3114 10.0924 10.7019 10.7019C10.0924 11.3114 9.75 12.138 9.75 13C9.75 13.862 10.0924 14.6886 10.7019 15.2981C11.3114 15.9076 12.138 16.25 13 16.25V16.25Z" stroke="#173EA5" stroke-width="1.5" stroke-linecap="round" stroke-linejoin="round"/>
<path d="M2.1665 13H9.74984M16.2498 13H23.8332" stroke="#173EA5" stroke-width="1.5"/>
</svg>
