<svg width="28" height="28" viewBox="0 0 28 28" fill="none" xmlns="http://www.w3.org/2000/svg">
<path d="M24.3131 5.37851C23.7173 4.78235 23.0098 4.30943 22.2311 3.98677C21.4524 3.66412 20.6177 3.49805 19.7748 3.49805C18.9319 3.49805 18.0973 3.66412 17.3186 3.98677C16.5399 4.30943 15.8324 4.78235 15.2365 5.37851L13.9998 6.61518L12.7631 5.37851C11.5595 4.17487 9.92702 3.49867 8.22481 3.49867C6.52261 3.49867 4.89012 4.17487 3.68648 5.37851C2.48284 6.58215 1.80664 8.21464 1.80664 9.91684C1.80664 11.619 2.48284 13.2515 3.68648 14.4552L4.92315 15.6918L13.9998 24.7685L23.0765 15.6918L24.3131 14.4552C24.9093 13.8593 25.3822 13.1518 25.7049 12.3731C26.0275 11.5944 26.1936 10.7597 26.1936 9.91684C26.1936 9.07394 26.0275 8.2393 25.7049 7.4606C25.3822 6.68189 24.9093 5.97439 24.3131 5.37851V5.37851Z" stroke="white" stroke-width="2.5" stroke-linecap="round" stroke-linejoin="round"/>
</svg>
