<svg width="94" height="94" viewBox="0 0 94 94" fill="none" xmlns="http://www.w3.org/2000/svg">
<g clip-path="url(#clip0_1918_10860)">
<path fill-rule="evenodd" clip-rule="evenodd" d="M83.7055 78.0592C83.7055 78.0592 71.8527 87.5655 48.266 83.6316C30.3711 80.6469 20.8268 60.9205 20.8268 50.3172C20.8268 25.1778 39.4333 19.4568 52.0126 19.4568C64.5917 19.4568 72.7978 31.7209 72.7978 41.2163C72.7978 50.7118 66.0819 59.0172 55.6305 59.0172C45.1792 59.0172 42.0839 51.6799 42.0839 44.9341C42.0839 38.1885 47.5415 35.8119 52.519 35.8119C57.4964 35.8119 59.2007 40.0613 59.2007 43.7136C59.2007 47.366 56.3669 48.6739 54.0033 48.6739C51.6397 48.6739 51.406 47.4815 50.5014 46.2282C49.5967 44.9752 51.6551 40.2319 48.266 40.2319C44.8769 40.2319 44.2451 45.6848 44.2451 45.6848C44.2451 45.6848 45.4807 56.2108 55.6305 56.0292C65.7805 55.8475 70.5956 48.0007 69.1962 40.2319C67.7969 32.4629 60.2572 24.2076 47.0249 25.8758C33.7926 27.5439 28.39 40.9139 30.7714 55.2019C33.1527 69.4901 50.2697 77.7687 63.7281 74.7903C77.1866 71.8119 90.591 62.0685 90.591 37.3654C90.591 12.6621 69.1962 -2.18675 43.685 0.260428C18.1737 2.7076 2.33745 25.0112 3.35111 51.8095C4.36477 78.6078 29.7932 93.2029 51.2955 93.9551C72.7978 94.7075 85.9797 82.2604 85.9797 82.2604C85.9797 82.2604 88.9441 79.6168 87.7818 77.5525C86.6197 75.4881 83.7055 78.0592 83.7055 78.0592Z" fill="url(#paint0_linear_1918_10860)"/>
</g>
<defs>
<linearGradient id="paint0_linear_1918_10860" x1="-5.43118" y1="7.04614" x2="67.1601" y2="112.617" gradientUnits="userSpaceOnUse">
<stop stop-color="white"/>
<stop offset="1" stop-color="white" stop-opacity="0"/>
</linearGradient>
<clipPath id="clip0_1918_10860">
<rect width="94" height="94" fill="white"/>
</clipPath>
</defs>
</svg>
