<svg width="16" height="16" viewBox="0 0 16 16" fill="none" xmlns="http://www.w3.org/2000/svg">
<path d="M13.125 13.0625H2.875C2.80625 13.0625 2.75 13.1187 2.75 13.1875L2.75 14.125C2.75 14.1938 2.80625 14.25 2.875 14.25H13.125C13.1938 14.25 13.25 14.1938 13.25 14.125V13.1875C13.25 13.1187 13.1938 13.0625 13.125 13.0625ZM13.125 1.75L2.875 1.75C2.80625 1.75 2.75 1.80625 2.75 1.875V2.8125C2.75 2.88125 2.80625 2.9375 2.875 2.9375L13.125 2.9375C13.1938 2.9375 13.25 2.88125 13.25 2.8125V1.875C13.25 1.80625 13.1938 1.75 13.125 1.75ZM9.54375 5.90625C9.6375 5.90625 9.69063 5.79688 9.63281 5.72344L8.05781 3.72969C8.04739 3.7162 8.03401 3.70527 8.01871 3.69776C8.0034 3.69024 7.98658 3.68634 7.96953 3.68634C7.95248 3.68634 7.93566 3.69024 7.92036 3.69776C7.90505 3.70527 7.89167 3.7162 7.88125 3.72969L6.30625 5.72344C6.29313 5.74012 6.28497 5.76016 6.28271 5.78126C6.28046 5.80237 6.28419 5.82368 6.29348 5.84276C6.30278 5.86184 6.31726 5.87791 6.33527 5.88914C6.35328 5.90037 6.37409 5.9063 6.39531 5.90625H7.4375L7.4375 10.0938H6.45625C6.3625 10.0938 6.30938 10.2031 6.36719 10.2766L7.94219 12.2688C7.9875 12.3266 8.075 12.3266 8.11875 12.2688L9.69375 10.2766C9.75156 10.2031 9.7 10.0938 9.60469 10.0938H8.5625V5.90625H9.54375Z" fill="black" fill-opacity="0.6"/>
</svg>
