<svg width="19" height="18" viewBox="0 0 19 18" fill="none" xmlns="http://www.w3.org/2000/svg">
<g clip-path="url(#clip0_1257_35393)">
<path fill-rule="evenodd" clip-rule="evenodd" d="M0.530605 8.94874C0.528211 8.94467 0.52821 8.9396 0.530602 8.93549L5.05678 1.20228C5.05914 1.19827 5.06346 1.1958 5.0681 1.1958H14.0392C14.0439 1.1958 14.0482 1.19829 14.0506 1.20234L18.5271 8.93556C18.5295 8.9396 18.5295 8.94463 18.5271 8.94867L14.0506 16.6732C14.0482 16.6773 14.0439 16.6798 14.0392 16.6798H5.0681C5.06346 16.6798 5.05914 16.6773 5.05678 16.6733L0.530605 8.94874ZM13.699 8.93778C13.699 11.2401 11.8326 13.1065 9.53026 13.1065C7.22794 13.1065 5.36152 11.2401 5.36152 8.93778C5.36152 6.63542 7.22794 4.76903 9.53026 4.76903C11.8326 4.76903 13.699 6.63542 13.699 8.93778Z" fill="white"/>
</g>
<defs>
<clipPath id="clip0_1257_35393">
<rect width="18.0001" height="18.0001" fill="white" transform="translate(0.528809)"/>
</clipPath>
</defs>
</svg>
