<svg width="94" height="94" viewBox="0 0 94 94" fill="none" xmlns="http://www.w3.org/2000/svg">
<path fill-rule="evenodd" clip-rule="evenodd" d="M62.8259 0.0930082C62.8944 -0.00461146 63.0288 -0.0283357 63.1265 0.0400185L69.8008 4.7135C69.8985 4.78185 69.9222 4.91639 69.8539 5.014L60.5642 18.2809C65.0804 19.7237 68.1573 21.28 68.1573 21.28C68.1573 21.28 60.6366 34.2164 47.8806 34.2164C35.1247 34.2164 26.0605 22.1595 26.0605 22.1595C26.0605 22.1595 29.2745 20.1083 34.0388 18.3492L23.8493 6.20601C23.7728 6.1147 23.7847 5.97861 23.8759 5.90201L30.1176 0.664604C30.209 0.588003 30.3451 0.599909 30.4216 0.691201L43.3231 16.0666C44.4278 15.9417 45.5532 15.8718 46.6889 15.8718C48.3213 15.8718 49.9516 15.9959 51.5432 16.2065L62.8259 0.0930082ZM65.3496 34.8291C68.7536 32.3979 73.9045 26.0526 73.9045 26.0526C73.9045 26.0526 87.0616 36.4789 87.0616 58.5865C87.0616 80.6939 64.315 93.9995 64.315 93.9995C64.315 93.9995 53.4472 83.0241 50.7792 69.1112C48.1114 55.1983 54.7258 39.7496 54.7258 39.7496C54.7258 39.7496 61.9454 37.2602 65.3496 34.8291V34.8291ZM28.689 34.8291C25.285 32.3979 20.1341 26.0526 20.1341 26.0526C20.1341 26.0526 6.97705 36.4789 6.97705 58.5865C6.97705 80.6939 29.7236 93.9995 29.7236 93.9995C29.7236 93.9995 40.5914 83.0241 43.2594 69.1112C45.9272 55.1983 39.3129 39.7496 39.3129 39.7496C39.3129 39.7496 32.0932 37.2602 28.689 34.8291V34.8291Z" fill="url(#paint0_linear_1918_8563)"/>
<defs>
<linearGradient id="paint0_linear_1918_8563" x1="-1.03853" y1="7.04972" x2="73.5875" y2="106.617" gradientUnits="userSpaceOnUse">
<stop stop-color="white"/>
<stop offset="1" stop-color="white" stop-opacity="0"/>
</linearGradient>
</defs>
</svg>
