<svg width="19" height="18" viewBox="0 0 19 18" fill="none" xmlns="http://www.w3.org/2000/svg">
<g clip-path="url(#clip0_1257_35395)">
<path fill-rule="evenodd" clip-rule="evenodd" d="M3.74895 1.49633C3.96679 0.636259 4.74597 -0.00012207 5.67374 -0.00012207C6.36967 -0.00012207 6.98199 0.357936 7.3365 0.899883H7.91704C8.27771 0.529742 8.78161 0.299879 9.33922 0.299879C10.1568 0.299879 10.8589 0.793999 11.1633 1.49989H11.6493C11.9539 1.30975 12.3137 1.19988 12.6992 1.19988C13.5168 1.19988 14.2189 1.694 14.5233 2.39989H15.845C15.8563 2.39989 15.8669 2.40293 15.876 2.40824C15.9363 2.40271 15.9975 2.39989 16.0592 2.39989C17.1558 2.39989 18.0447 3.28881 18.0447 4.38536V10.3389L18.0447 10.3499L18.0447 10.361V10.4467C18.0447 10.483 18.0437 10.5192 18.0417 10.5552C17.9223 14.6853 14.2085 18 9.64466 18C5.00545 18 1.24463 14.5749 1.24463 10.3499C1.24463 8.31054 2.1209 6.45752 3.54926 5.08614C3.5457 7.07434 3.57928 9.1298 3.73408 9.09453C4.14859 9.00003 3.82473 2.84191 3.74895 1.49633Z" fill="white"/>
</g>
<defs>
<clipPath id="clip0_1257_35395">
<rect width="18.0001" height="18.0001" fill="white" transform="translate(0.646973)"/>
</clipPath>
</defs>
</svg>
