<svg width="94" height="94" viewBox="0 0 94 94" fill="none" xmlns="http://www.w3.org/2000/svg">
<mask id="path-1-inside-1_1918_8256" fill="white">
<path d="M24.4022 33.3928L44.9516 43.6674V20.5494L24.4022 7.70605V33.3928Z"/>
<path d="M47.5202 20.5494V43.6674L68.0696 33.3928V7.70605L47.5202 20.5494Z"/>
<path d="M68.0696 59.0795L47.5202 48.8048V74.4915L68.0696 84.7662V59.0795Z"/>
<path d="M44.9516 74.4915V48.8048L24.4022 59.0795V84.7662L44.9516 74.4915Z"/>
<path d="M68.0696 35.9614L47.5202 46.2361L68.0696 56.5108L91.1876 46.2361L68.0696 35.9614Z"/>
<path d="M24.4022 35.9614L44.9516 46.2361L21.8335 56.5108L1.28418 46.2361L24.4022 35.9614Z"/>
</mask>
<path d="M44.9516 43.6674L28.8692 75.8323L80.9129 101.854V43.6674H44.9516ZM24.4022 33.3928H-11.5592V55.6181L8.31979 65.5576L24.4022 33.3928ZM24.4022 7.70605L43.4617 -22.7891L-11.5592 -57.1772V7.70605H24.4022ZM44.9516 20.5494H80.9129V0.617898L64.0111 -9.94578L44.9516 20.5494ZM47.5202 43.6674H11.5589V101.854L63.6026 75.8323L47.5202 43.6674ZM47.5202 20.5494L28.4607 -9.94578L11.5589 0.617897V20.5494H47.5202ZM68.0696 7.70605H104.031V-57.1772L49.0101 -22.7891L68.0696 7.70605ZM68.0696 33.3928L84.152 65.5576L104.031 55.6181V33.3928H68.0696ZM47.5202 48.8048L63.6027 16.6399L11.5589 -9.38196V48.8048H47.5202ZM68.0696 59.0795H104.031V36.8541L84.152 26.9146L68.0696 59.0795ZM68.0696 84.7662L51.9872 116.931L104.031 142.953V84.7662H68.0696ZM47.5202 74.4915H11.5589V96.7168L31.4378 106.656L47.5202 74.4915ZM44.9516 48.8048H80.9129V-9.38197L28.8691 16.6399L44.9516 48.8048ZM44.9516 74.4915L61.034 106.656L80.9129 96.7168V74.4915H44.9516ZM24.4022 84.7662H-11.5592V142.953L40.4846 116.931L24.4022 84.7662ZM24.4022 59.0795L8.31979 26.9146L-11.5592 36.8541V59.0795H24.4022ZM47.5202 46.2361L31.4378 14.0713L-32.8918 46.2361L31.4378 78.4009L47.5202 46.2361ZM68.0696 35.9614L82.6749 3.0995L67.1665 -3.7931L51.9872 3.79659L68.0696 35.9614ZM91.1876 46.2361L105.793 79.098L179.732 46.2361L105.793 13.3742L91.1876 46.2361ZM68.0696 56.5108L51.9872 88.6756L67.1665 96.2653L82.6749 89.3727L68.0696 56.5108ZM44.9516 46.2361L59.5569 79.098L129.191 48.1496L61.034 14.0713L44.9516 46.2361ZM24.4022 35.9614L40.4846 3.79659L25.3053 -3.7931L9.79691 3.0995L24.4022 35.9614ZM1.28418 46.2361L-13.3211 13.3742L-82.955 44.3226L-14.7982 78.4009L1.28418 46.2361ZM21.8335 56.5108L5.75112 88.6756L20.9305 96.2653L36.4388 89.3727L21.8335 56.5108ZM61.034 11.5026L40.4846 1.22792L8.31979 65.5576L28.8692 75.8323L61.034 11.5026ZM60.3636 33.3928V7.70605H-11.5592V33.3928H60.3636ZM5.34272 38.2012L25.8921 51.0446L64.0111 -9.94578L43.4617 -22.7891L5.34272 38.2012ZM8.99019 20.5494V43.6674H80.9129V20.5494H8.99019ZM83.4816 43.6674V20.5494H11.5589V43.6674H83.4816ZM66.5797 51.0446L87.1291 38.2012L49.0101 -22.7891L28.4607 -9.94578L66.5797 51.0446ZM32.1082 7.70605V33.3928H104.031V7.70605H32.1082ZM51.9872 1.22792L31.4378 11.5026L63.6026 75.8323L84.152 65.5576L51.9872 1.22792ZM31.4378 80.9696L51.9872 91.2443L84.152 26.9146L63.6027 16.6399L31.4378 80.9696ZM32.1082 59.0795V84.7662H104.031V59.0795H32.1082ZM84.152 52.6013L63.6027 42.3266L31.4378 106.656L51.9872 116.931L84.152 52.6013ZM83.4816 74.4915V48.8048H11.5589V74.4915H83.4816ZM8.99019 48.8048V74.4915H80.9129V48.8048H8.99019ZM28.8691 42.3266L8.31979 52.6013L40.4846 116.931L61.034 106.656L28.8691 42.3266ZM60.3636 84.7662V59.0795H-11.5592V84.7662H60.3636ZM40.4846 91.2443L61.034 80.9696L28.8691 16.6399L8.31979 26.9146L40.4846 91.2443ZM63.6027 78.4009L84.152 68.1263L51.9872 3.79659L31.4378 14.0713L63.6027 78.4009ZM53.4643 68.8233L76.5823 79.098L105.793 13.3742L82.6749 3.0995L53.4643 68.8233ZM76.5823 13.3742L53.4643 23.6489L82.6749 89.3727L105.793 79.098L76.5823 13.3742ZM84.152 24.3459L63.6026 14.0713L31.4378 78.4009L51.9872 88.6756L84.152 24.3459ZM61.034 14.0713L40.4846 3.79659L8.31979 68.1263L28.8691 78.4009L61.034 14.0713ZM9.79691 3.0995L-13.3211 13.3742L15.8895 79.098L39.0075 68.8233L9.79691 3.0995ZM-14.7982 78.4009L5.75112 88.6756L37.916 24.3459L17.3666 14.0713L-14.7982 78.4009ZM36.4388 89.3727L59.5569 79.098L30.3463 13.3742L7.22824 23.6489L36.4388 89.3727Z" fill="url(#paint0_linear_1918_8256)" mask="url(#path-1-inside-1_1918_8256)"/>
<defs>
<linearGradient id="paint0_linear_1918_8256" x1="0.999757" y1="8" x2="90.9998" y2="85" gradientUnits="userSpaceOnUse">
<stop stop-color="white"/>
<stop offset="1" stop-color="white" stop-opacity="0"/>
</linearGradient>
</defs>
</svg>
