<svg width="94" height="94" viewBox="0 0 94 94" fill="none" xmlns="http://www.w3.org/2000/svg">
<g clip-path="url(#clip0_1918_793)">
<path fill-rule="evenodd" clip-rule="evenodd" d="M16.1987 7.81478C17.3363 3.3233 21.4053 0 26.2503 0C29.8845 0 33.0822 1.86985 34.9336 4.7H37.9652C39.8487 2.76705 42.4802 1.56667 45.3922 1.56667C49.6615 1.56667 53.3282 4.14705 54.9177 7.83334H57.4559C59.0464 6.84043 60.9257 6.26666 62.9388 6.26666C67.2082 6.26666 70.8748 8.84705 72.4644 12.5333H79.3666C79.4255 12.5333 79.4808 12.5492 79.5283 12.5769C79.8435 12.5481 80.1628 12.5333 80.4854 12.5333C86.2119 12.5333 90.8538 17.1755 90.8538 22.9019V53.9924L90.854 54.05L90.8538 54.1077V54.5554C90.8538 54.7451 90.8487 54.934 90.8384 55.122C90.2146 76.6902 70.8206 94 46.9872 94C22.7604 94 3.12061 76.1138 3.12061 54.05C3.12061 43.3999 7.69666 33.7231 15.1558 26.5614C15.1372 36.9442 15.3126 47.6782 16.121 47.4941C18.2857 47.0006 16.5944 14.8416 16.1987 7.81478Z" fill="url(#paint0_linear_1918_793)"/>
</g>
<defs>
<linearGradient id="paint0_linear_1918_793" x1="-5.66055" y1="7.04886" x2="66.8078" y2="112.97" gradientUnits="userSpaceOnUse">
<stop stop-color="white"/>
<stop offset="1" stop-color="white" stop-opacity="0"/>
</linearGradient>
<clipPath id="clip0_1918_793">
<rect width="94" height="94" fill="white"/>
</clipPath>
</defs>
</svg>
