<svg width="18" height="18" viewBox="0 0 18 18" fill="none" xmlns="http://www.w3.org/2000/svg">
<g clip-path="url(#clip0_1257_35401)">
<path fill-rule="evenodd" clip-rule="evenodd" d="M12.971 17.9378C11.3474 18.0209 9.48858 18.0209 8.85689 17.9378C3.92944 17.2895 0 13.6869 0 8.81723C0 3.94761 4.02946 0 9.00005 0C13.9706 0 18.0001 3.94761 18.0001 8.81723C18.0001 11.082 17.1285 13.1474 15.6959 14.709C15.3069 15.133 15.8407 15.4304 16.383 15.7326C16.9148 16.0291 17.4549 16.33 17.141 16.7595C16.7951 17.2327 14.9201 17.838 12.971 17.9378ZM7.73442 7.71508C7.73442 8.47594 7.1048 9.09276 6.32816 9.09276C5.55152 9.09276 4.9219 8.47594 4.9219 7.71508C4.9219 7.20478 5.20509 6.75932 5.62587 6.5212C5.6501 7.18464 6.19558 7.71505 6.86496 7.71505H7.73442V7.71508ZM12.093 6.5212C12.0687 7.18464 11.5233 7.71505 10.8539 7.71505H9.98443V7.71508C9.98443 8.47594 10.614 9.09276 11.3907 9.09276C12.1673 9.09276 12.7969 8.47594 12.7969 7.71508C12.7969 7.20478 12.5138 6.75932 12.093 6.5212Z" fill="white"/>
</g>
<defs>
<clipPath id="clip0_1257_35401">
<rect width="18.0001" height="18.0001" fill="white"/>
</clipPath>
</defs>
</svg>
