<svg width="16" height="16" viewBox="0 0 16 16" fill="none" xmlns="http://www.w3.org/2000/svg">
<g clip-path="url(#clip0_1979_12639)">
<path d="M7.99967 14.6673C11.6817 14.6673 14.6663 11.6827 14.6663 8.00065C14.6663 4.31865 11.6817 1.33398 7.99967 1.33398C4.31767 1.33398 1.33301 4.31865 1.33301 8.00065C1.33301 11.6827 4.31767 14.6673 7.99967 14.6673Z" stroke="black" stroke-opacity="0.6" stroke-linecap="round" stroke-linejoin="round"/>
<path d="M8 10C8.53043 10 9.03914 9.78929 9.41421 9.41421C9.78929 9.03914 10 8.53043 10 8C10 7.46957 9.78929 6.96086 9.41421 6.58579C9.03914 6.21071 8.53043 6 8 6C7.46957 6 6.96086 6.21071 6.58579 6.58579C6.21071 6.96086 6 7.46957 6 8C6 8.53043 6.21071 9.03914 6.58579 9.41421C6.96086 9.78929 7.46957 10 8 10V10Z" stroke="black" stroke-opacity="0.6" stroke-linecap="round" stroke-linejoin="round"/>
<path d="M1.33301 8H5.99967M9.99967 8H14.6663" stroke="black" stroke-opacity="0.6"/>
</g>
<defs>
<clipPath id="clip0_1979_12639">
<rect width="16" height="16" fill="white"/>
</clipPath>
</defs>
</svg>
