<svg width="26" height="26" viewBox="0 0 26 26" fill="none" xmlns="http://www.w3.org/2000/svg">
<path d="M13.0003 23.8337C18.9836 23.8337 23.8337 18.9836 23.8337 13.0003C23.8337 7.01708 18.9836 2.16699 13.0003 2.16699C7.01708 2.16699 2.16699 7.01708 2.16699 13.0003C2.16699 18.9836 7.01708 23.8337 13.0003 23.8337Z" stroke="#808080" stroke-width="1.5" stroke-linecap="round" stroke-linejoin="round"/>
<path d="M13 16.251C13.862 16.251 14.6886 15.9086 15.2981 15.2991C15.9076 14.6896 16.25 13.8629 16.25 13.001C16.25 12.139 15.9076 11.3124 15.2981 10.7029C14.6886 10.0934 13.862 9.75098 13 9.75098C12.138 9.75098 11.3114 10.0934 10.7019 10.7029C10.0924 11.3124 9.75 12.139 9.75 13.001C9.75 13.8629 10.0924 14.6896 10.7019 15.2991C11.3114 15.9086 12.138 16.251 13 16.251V16.251Z" stroke="#808080" stroke-width="1.5" stroke-linecap="round" stroke-linejoin="round"/>
<path d="M2.16699 13H9.75033M16.2503 13H23.8337" stroke="#808080" stroke-width="1.5"/>
</svg>
