<svg width="19" height="18" viewBox="0 0 19 18" fill="none" xmlns="http://www.w3.org/2000/svg">
<g clip-path="url(#clip0_1257_35421)">
<path fill-rule="evenodd" clip-rule="evenodd" d="M4.37503 15.4601C4.37014 15.4601 4.36673 15.4552 4.36835 15.4506L8.96382 2.46553C8.96484 2.4627 8.96751 2.46082 8.9705 2.46082H13.8763C13.8793 2.46082 13.882 2.46272 13.883 2.46556L18.4103 15.4507C18.4119 15.4553 18.4085 15.4601 18.4036 15.4601H4.51312H4.37503ZM0.417722 15.5109C0.412786 15.5109 0.409369 15.5059 0.4111 15.5013L3.83322 6.36515C3.83425 6.36237 3.83689 6.36054 3.83984 6.36054H6.81327C6.81819 6.36054 6.8216 6.36543 6.81991 6.37004L3.51082 15.5062C3.50981 15.509 3.50715 15.5109 3.50417 15.5109H0.417722Z" fill="white"/>
</g>
<defs>
<clipPath id="clip0_1257_35421">
<rect width="18.0001" height="18.0001" fill="white" transform="translate(0.410645)"/>
</clipPath>
</defs>
</svg>
