<svg width="94" height="94" viewBox="0 0 94 94" fill="none" xmlns="http://www.w3.org/2000/svg">
<g clip-path="url(#clip0_1918_13818)">
<path fill-rule="evenodd" clip-rule="evenodd" d="M72.5439 44.9378C72.5386 44.9305 72.5364 44.9213 72.5378 44.9123L78.5347 9.94388C78.5375 9.92778 78.5516 9.91602 78.5678 9.91602H80.4658C80.4805 9.91602 80.4933 9.92551 80.4977 9.93946L94.0084 52.7174C94.0126 52.7306 94.008 52.7453 93.997 52.7539L84.0354 60.5315C84.0205 60.5431 83.999 60.5402 83.9878 60.5249L72.5439 44.9378ZM-0.18457 68.1193C-0.18457 68.1338 -0.175244 68.1466 -0.161458 68.1512L20.3733 74.8654C20.3833 74.8687 20.3943 74.8671 20.4029 74.8612L66.303 43.1729C66.3107 43.1676 66.3158 43.1593 66.3171 43.1502L71.2393 10.1232C71.2424 10.1029 71.2266 10.0847 71.2062 10.0847H30.5501C30.54 10.0847 30.5307 10.0891 30.5242 10.0968L-0.176855 47.133C-0.181842 47.1391 -0.18457 47.1466 -0.18457 47.1545V68.1193ZM28.9303 76.5762L51.3641 83.9249C51.3742 83.9282 51.3854 83.9265 51.3941 83.9203L78.1031 64.7617C78.118 64.7513 78.1217 64.7309 78.1116 64.7158L68.0991 49.8163C68.0886 49.8007 68.0677 49.7966 68.0523 49.8073L28.9303 76.5762Z" fill="url(#paint0_linear_1918_13818)"/>
</g>
<defs>
<linearGradient id="paint0_linear_1918_13818" x1="-9.61241" y1="15.4659" x2="39.4626" y2="113.277" gradientUnits="userSpaceOnUse">
<stop stop-color="white"/>
<stop offset="1" stop-color="white" stop-opacity="0"/>
</linearGradient>
<clipPath id="clip0_1918_13818">
<rect width="94" height="94" fill="white"/>
</clipPath>
</defs>
</svg>
