<svg width="16" height="16" viewBox="0 0 16 16" fill="none" xmlns="http://www.w3.org/2000/svg">
<path d="M13.3333 2.08511H9.33333C9.17909 2.08511 9.03117 2.14638 8.92211 2.25544C8.81305 2.36451 8.75177 2.51243 8.75177 2.66667V6.66667C8.75177 6.82091 8.81304 6.96883 8.92211 7.07789C9.03117 7.18696 9.17909 7.24823 9.33333 7.24823L13.3333 7.24823C13.4876 7.24823 13.6355 7.18696 13.7446 7.07789C13.8536 6.96883 13.9149 6.82091 13.9149 6.66667V2.66667C13.9149 2.51243 13.8536 2.36451 13.7446 2.25544M13.3333 2.08511L13.7446 2.25544M13.3333 2.08511C13.4876 2.08511 13.6355 2.14638 13.7446 2.25544M13.3333 2.08511L13.7446 2.25544M6 6.08511H6.08511V6V3.33333V3.24823H6H3.33333H3.24823V3.33333V6V6.08511H3.33333H6ZM12.6667 6.08511H12.7518V6V3.33333V3.24823H12.6667L10 3.24823H9.91489V3.33333V6V6.08511H10L12.6667 6.08511ZM6 12.7518H6.08511V12.6667L6.08511 10V9.91489H6H3.33333H3.24823V10L3.24823 12.6667V12.7518H3.33333H6ZM2.66667 2.08511L6.66667 2.08511C6.82091 2.08511 6.96883 2.14638 7.07789 2.25544C7.18696 2.36451 7.24823 2.51243 7.24823 2.66667V6.66667C7.24823 6.82091 7.18696 6.96883 7.07789 7.07789C6.96883 7.18696 6.82091 7.24823 6.66667 7.24823H2.66667C2.51243 7.24823 2.36451 7.18696 2.25544 7.07789C2.14638 6.96883 2.08511 6.82091 2.08511 6.66667L2.08511 2.66667C2.08511 2.51243 2.14638 2.36451 2.25544 2.25544C2.36451 2.14638 2.51243 2.08511 2.66667 2.08511ZM2.66667 8.75177H6.66667C6.82091 8.75177 6.96883 8.81304 7.07789 8.92211C7.18696 9.03117 7.24823 9.17909 7.24823 9.33333L7.24823 13.3333C7.24823 13.4876 7.18696 13.6355 7.07789 13.7446C6.96883 13.8536 6.82091 13.9149 6.66667 13.9149H2.66667C2.51243 13.9149 2.36451 13.8536 2.25544 13.7446C2.14638 13.6355 2.08511 13.4876 2.08511 13.3333V9.33333C2.08511 9.17909 2.14638 9.03117 2.25544 8.92211C2.36451 8.81305 2.51243 8.75177 2.66667 8.75177ZM8.75177 11.3333C8.75177 9.90967 9.90967 8.75177 11.3333 8.75177C12.757 8.75177 13.9149 9.90967 13.9149 11.3333C13.9149 12.757 12.757 13.9149 11.3333 13.9149C9.90967 13.9149 8.75177 12.757 8.75177 11.3333ZM9.91489 11.3333C9.91489 12.1157 10.551 12.7518 11.3333 12.7518C12.1157 12.7518 12.7518 12.1157 12.7518 11.3333C12.7518 10.551 12.1157 9.91489 11.3333 9.91489C10.551 9.91489 9.91489 10.551 9.91489 11.3333Z" fill="black" fill-opacity="0.6" stroke="white" stroke-width="0.170213"/>
</svg>
