<svg width="18" height="18" viewBox="0 0 18 18" fill="none" xmlns="http://www.w3.org/2000/svg">
<path d="M13.125 7.125C13.125 4.845 11.28 3 9 3C6.72 3 4.875 4.845 4.875 7.125C4.875 9.15 6.33 10.8225 8.25 11.175L8.25 12.75H6.75L6.75 14.25H8.25V15.75H9.75L9.75 14.25H11.25V12.75H9.75V11.175C11.67 10.8225 13.125 9.15 13.125 7.125ZM6.375 7.125C6.375 5.6775 7.5525 4.5 9 4.5C10.4475 4.5 11.625 5.6775 11.625 7.125C11.625 8.5725 10.4475 9.75 9 9.75C7.5525 9.75 6.375 8.5725 6.375 7.125Z" fill="black" fill-opacity="0.7"/>
</svg>
