<svg width="30" height="30" viewBox="0 0 30 30" fill="none" xmlns="http://www.w3.org/2000/svg">
<path d="M26.0498 5.7621C25.4114 5.12335 24.6533 4.61665 23.819 4.27095C22.9847 3.92525 22.0904 3.74731 21.1873 3.74731C20.2842 3.74731 19.3899 3.92525 18.5556 4.27095C17.7213 4.61665 16.9632 5.12335 16.3248 5.7621L14.9998 7.0871L13.6748 5.7621C12.3852 4.47248 10.6361 3.74798 8.8123 3.74798C6.98851 3.74798 5.23941 4.47248 3.9498 5.7621C2.66018 7.05171 1.93568 8.8008 1.93568 10.6246C1.93568 12.4484 2.66018 14.1975 3.9498 15.4871L5.2748 16.8121L14.9998 26.5371L24.7248 16.8121L26.0498 15.4871C26.6885 14.8487 27.1952 14.0906 27.5409 13.2563C27.8866 12.422 28.0646 11.5277 28.0646 10.6246C28.0646 9.72149 27.8866 8.82723 27.5409 7.9929C27.1952 7.15858 26.6885 6.40054 26.0498 5.7621Z" fill="#FD525C" stroke="#FD525C" stroke-linecap="round" stroke-linejoin="round"/>
</svg>
