<svg width="32" height="32" viewBox="0 0 32 32" fill="none" xmlns="http://www.w3.org/2000/svg">
<g filter="url(#filter0_b_1260_36133)">
<circle cx="16" cy="16" r="16" fill="black" fill-opacity="0.3"/>
<circle cx="16" cy="16" r="15.25" stroke="white" stroke-width="1.5"/>
</g>
<g filter="url(#filter1_d_1260_36133)">
<path d="M21.8933 11.0733C21.5528 10.7327 21.1485 10.4624 20.7036 10.2781C20.2586 10.0937 19.7816 9.99878 19.3 9.99878C18.8183 9.99878 18.3414 10.0937 17.8964 10.2781C17.4514 10.4624 17.0472 10.7327 16.7066 11.0733L16 11.78L15.2933 11.0733C14.6055 10.3855 13.6727 9.99914 12.7 9.99914C11.7273 9.99914 10.7944 10.3855 10.1066 11.0733C9.41885 11.7611 9.03246 12.694 9.03246 13.6667C9.03246 14.6394 9.41885 15.5722 10.1066 16.26L10.8133 16.9667L16 22.1533L21.1866 16.9667L21.8933 16.26C22.234 15.9195 22.5042 15.5152 22.6886 15.0702C22.873 14.6253 22.9679 14.1483 22.9679 13.6667C22.9679 13.185 22.873 12.7081 22.6886 12.2631C22.5042 11.8181 22.234 11.4138 21.8933 11.0733V11.0733Z" stroke="white" stroke-width="1.5" stroke-linecap="round" stroke-linejoin="round"/>
</g>
<defs>
<filter id="filter0_b_1260_36133" x="-7" y="-7" width="46" height="46" filterUnits="userSpaceOnUse" color-interpolation-filters="sRGB">
<feFlood flood-opacity="0" result="BackgroundImageFix"/>
<feGaussianBlur in="BackgroundImageFix" stdDeviation="3.5"/>
<feComposite in2="SourceAlpha" operator="in" result="effect1_backgroundBlur_1260_36133"/>
<feBlend mode="normal" in="SourceGraphic" in2="effect1_backgroundBlur_1260_36133" result="shape"/>
</filter>
<filter id="filter1_d_1260_36133" x="5.56132" y="8" width="20.8774" height="20.8774" filterUnits="userSpaceOnUse" color-interpolation-filters="sRGB">
<feFlood flood-opacity="0" result="BackgroundImageFix"/>
<feColorMatrix in="SourceAlpha" type="matrix" values="0 0 0 0 0 0 0 0 0 0 0 0 0 0 0 0 0 0 127 0" result="hardAlpha"/>
<feOffset dy="2.43868"/>
<feGaussianBlur stdDeviation="1.21934"/>
<feComposite in2="hardAlpha" operator="out"/>
<feColorMatrix type="matrix" values="0 0 0 0 0 0 0 0 0 0 0 0 0 0 0 0 0 0 0.25 0"/>
<feBlend mode="normal" in2="BackgroundImageFix" result="effect1_dropShadow_1260_36133"/>
<feBlend mode="normal" in="SourceGraphic" in2="effect1_dropShadow_1260_36133" result="shape"/>
</filter>
</defs>
</svg>
