<svg width="19" height="18" viewBox="0 0 19 18" fill="none" xmlns="http://www.w3.org/2000/svg">
<g clip-path="url(#clip0_1257_35403)">
<path fill-rule="evenodd" clip-rule="evenodd" d="M12.8547 13.9009C13.0771 13.0877 12.6454 11.4159 12.6454 11.4159C12.6454 11.4159 12.3323 12.7778 11.843 13.2812C11.4256 13.7106 10.9143 14.0084 10.1809 14.0866C10.7805 13.7954 11.1929 13.1881 11.1929 12.4862C11.1929 11.5009 10.3803 10.7022 9.37803 10.7022C8.37572 10.7022 7.56315 11.5009 7.56315 12.4862C7.56315 12.7553 7.62379 13.0105 7.73232 13.2393C7.10541 12.7399 7.00683 11.9392 7.00683 11.9392C7.00683 11.9392 6.3068 14.8455 8.23569 16.2127C10.1645 17.5799 13.9431 16.4047 13.9431 16.4047C13.9431 16.4047 8.53575 20.2095 4.52883 16.0685C1.0772 12.5013 3.62795 7.80508 3.62795 7.80508C3.62795 7.80508 3.51779 8.24074 3.51779 8.74646C3.51779 9.25219 3.79199 9.63698 3.79199 9.63698C3.79199 9.63698 4.6099 7.91294 5.24644 7.21181C5.84889 6.54827 6.60408 6.0101 7.25637 5.54526C7.75848 5.18744 8.19962 4.87307 8.46308 4.57842C9.91424 2.9558 9.02446 0.000244141 9.02446 0.000244141C9.02446 0.000244141 10.6603 1.44236 11.117 3.30487C11.2911 4.01483 11.1791 4.82262 11.0789 5.54498C10.9164 6.71766 10.785 7.66523 11.9594 7.60374C13.8572 7.50435 12.2081 4.57842 12.2081 4.57842C12.2081 4.57842 16.513 6.84109 16.1914 10.7984C15.8698 14.7556 11.4859 15.6553 11.4859 15.6553C11.4859 15.6553 12.6322 14.7141 12.8547 13.9009Z" fill="white"/>
</g>
<defs>
<clipPath id="clip0_1257_35403">
<rect width="18.0001" height="18.0001" fill="white" transform="translate(0.470703)"/>
</clipPath>
</defs>
</svg>
